<svg width="24" height="24" viewBox="0 0 24 24" fill="none" xmlns="http://www.w3.org/2000/svg">
<path d="M23.7072 12.7052L18.459 17.9544C18.2715 18.1419 18.0172 18.2472 17.7521 18.2472C17.487 18.2472 17.2327 18.1418 17.0452 17.9543C16.8577 17.7668 16.7524 17.5125 16.7524 17.2473C16.7525 16.9821 16.8578 16.7278 17.0453 16.5403L20.5869 12.998H9.00136C8.73623 12.998 8.48196 12.8927 8.29449 12.7052C8.10702 12.5176 8.0017 12.2633 8.0017 11.9982C8.0017 11.733 8.10702 11.4787 8.29449 11.2912C8.48196 11.1036 8.73623 10.9983 9.00136 10.9983H20.5869L17.0453 7.45601C16.8578 7.2685 16.7525 7.01419 16.7524 6.74901C16.7524 6.48382 16.8577 6.2295 17.0452 6.04198C17.2327 5.85446 17.487 5.7491 17.7521 5.74909C18.0172 5.74908 18.2715 5.85441 18.459 6.04192L23.7072 11.2911C23.8947 11.4786 24 11.733 24 11.9982C24 12.2633 23.8947 12.5177 23.7072 12.7052ZM11.0007 21.9966H2.00372V1.99969H11.0007C11.2658 1.99969 11.5201 1.89435 11.7076 1.70684C11.895 1.51934 12.0003 1.26502 12.0003 0.999846C12.0003 0.73467 11.895 0.480356 11.7076 0.292848C11.5201 0.105341 11.2658 0 11.0007 0H2.00372C1.47365 0.000606329 0.965468 0.211482 0.590653 0.586366C0.215838 0.96125 0.00500075 1.46953 0.00439453 1.99969V21.9966C0.00500075 22.5268 0.215838 23.0351 0.590653 23.4099C0.965468 23.7848 1.47365 23.9957 2.00372 23.9963H11.0007C11.2658 23.9963 11.5201 23.891 11.7076 23.7035C11.895 23.516 12.0003 23.2616 12.0003 22.9965C12.0003 22.7313 11.895 22.477 11.7076 22.2895C11.5201 22.102 11.2658 21.9966 11.0007 21.9966Z" fill="#374957"/>
</svg>
