<svg width="26" height="25" viewBox="0 0 26 25" fill="none" xmlns="http://www.w3.org/2000/svg">
<path fill-rule="evenodd" clip-rule="evenodd" d="M17.1533 6.5C17.1533 7.56087 16.7157 8.57828 15.9368 9.32843C15.1579 10.0786 14.1015 10.5 13 10.5C11.8984 10.5 10.842 10.0786 10.0631 9.32843C9.28423 8.57828 8.84664 7.56087 8.84664 6.5C8.84664 5.43913 9.28423 4.42172 10.0631 3.67157C10.842 2.92143 11.8984 2.5 13 2.5C14.1015 2.5 15.1579 2.92143 15.9368 3.67157C16.7157 4.42172 17.1533 5.43913 17.1533 6.5ZM13 12.5C14.6523 12.5 16.2369 11.8679 17.4053 10.7426C18.5736 9.61742 19.23 8.0913 19.23 6.5C19.23 4.9087 18.5736 3.38258 17.4053 2.25736C16.2369 1.13214 14.6523 0.5 13 0.5C11.3477 0.5 9.76305 1.13214 8.5947 2.25736C7.42635 3.38258 6.76998 4.9087 6.76998 6.5C6.76998 8.0913 7.42635 9.61742 8.5947 10.7426C9.76305 11.8679 11.3477 12.5 13 12.5ZM25.46 22.5C25.46 24.5 23.3833 24.5 23.3833 24.5H2.61664C2.61664 24.5 0.539978 24.5 0.539978 22.5C0.539978 20.5 2.61664 14.5 13 14.5C23.3833 14.5 25.46 20.5 25.46 22.5ZM23.3833 22.492C23.3812 22 23.0635 20.52 21.6555 19.164C20.3015 17.86 17.7535 16.5 13 16.5C8.24441 16.5 5.69842 17.86 4.34443 19.164C2.93645 20.52 2.6208 22 2.61664 22.492H23.3833Z" fill="#878787"/>
</svg>
