<svg width="43" height="38" viewBox="0 0 43 38" fill="none" xmlns="http://www.w3.org/2000/svg">
<g clip-path="url(#clip0_34_1305)">
<path d="M32.113 13.0683H30.3562V9.97589C30.3562 5.70842 26.4208 2.24496 21.5719 2.24496C16.7229 2.24496 12.7876 5.70842 12.7876 9.97589V13.0683H11.0307C9.09814 13.0683 7.51697 14.4598 7.51697 16.1606V31.6225C7.51697 33.3233 9.09814 34.7148 11.0307 34.7148H32.113C34.0456 34.7148 35.6268 33.3233 35.6268 31.6225V16.1606C35.6268 14.4598 34.0456 13.0683 32.113 13.0683ZM21.5719 26.9839C19.6393 26.9839 18.0581 25.5924 18.0581 23.8916C18.0581 22.1907 19.6393 20.7992 21.5719 20.7992C23.5044 20.7992 25.0856 22.1907 25.0856 23.8916C25.0856 25.5924 23.5044 26.9839 21.5719 26.9839ZM27.0181 13.0683H16.1256V9.97589C16.1256 7.33191 18.5676 5.18272 21.5719 5.18272C24.5761 5.18272 27.0181 7.33191 27.0181 9.97589V13.0683Z" fill="#787878"/>
</g>
<defs>
<clipPath id="clip0_34_1305">
<rect x="0.489502" y="0.698792" width="42.1647" height="37.1084" rx="8" fill="white"/>
</clipPath>
</defs>
</svg>
