<svg width="22" height="24" viewBox="0 0 22 24" fill="none" xmlns="http://www.w3.org/2000/svg">
<path d="M20.8354 17.088C20.1497 15.9074 19.3323 13.6736 19.3323 9.73585V8.93245C19.3323 4.04297 15.4119 0.0360406 10.593 0.000226291C10.5705 0.000113083 10.5482 0 10.5257 0C8.18732 0.00312652 5.94594 0.935188 4.2946 2.59116C2.64327 4.24712 1.71726 6.49136 1.72026 8.83019V9.73585C1.72026 13.6735 0.902417 15.9071 0.216222 17.0877C0.0757255 17.3283 0.00114909 17.6018 1.31732e-05 17.8804C-0.00112274 18.1591 0.0712219 18.4331 0.209752 18.6749C0.348282 18.9167 0.548099 19.1176 0.789055 19.2575C1.03001 19.3974 1.30359 19.4713 1.5822 19.4717H6.22473V19.6981C6.22473 20.839 6.67788 21.9332 7.4845 22.74C8.29111 23.5468 9.38511 24 10.5258 24C11.6666 24 12.7606 23.5468 13.5672 22.74C14.3738 21.9332 14.8269 20.839 14.8269 19.6981V19.4717H19.4695C19.748 19.4713 20.0216 19.3975 20.2625 19.2576C20.5035 19.1177 20.7033 18.9168 20.8418 18.6751C20.9804 18.4333 21.0527 18.1593 21.0516 17.8807C21.0505 17.6021 20.9759 17.3287 20.8354 17.088ZM13.4687 19.6981C13.4687 20.4788 13.1586 21.2274 12.6067 21.7794C12.0549 22.3314 11.3063 22.6415 10.5258 22.6415C9.74534 22.6415 8.99681 22.3314 8.44492 21.7794C7.89302 21.2274 7.58297 20.4788 7.58297 19.6981V19.4717H13.4687V19.6981ZM19.6621 18.0015C19.6432 18.036 19.6153 18.0646 19.5814 18.0842C19.5474 18.1039 19.5087 18.1139 19.4695 18.1132H1.5822C1.54294 18.1139 1.50423 18.1039 1.47026 18.0842C1.43628 18.0646 1.40833 18.036 1.38942 18.0015C1.36849 17.9666 1.35752 17.9266 1.35772 17.8858C1.35791 17.8451 1.36926 17.8051 1.39053 17.7704C2.16051 16.4455 3.07849 13.976 3.07849 9.73585V8.83019C3.07551 6.8516 3.85847 4.95286 5.25515 3.55165C6.65183 2.15045 8.54783 1.36155 10.5261 1.35849C10.5448 1.35849 10.5641 1.35861 10.5829 1.35872C14.6584 1.38901 17.9741 4.78656 17.9741 8.93246V9.73585C17.9741 13.9761 18.8915 16.4455 19.6611 17.7705C19.6824 17.8052 19.6937 17.8452 19.6939 17.8859C19.694 17.9266 19.6831 17.9666 19.6621 18.0015Z" fill="#374957"/>
</svg>
