<svg width="25" height="25" viewBox="0 0 25 25" fill="none" xmlns="http://www.w3.org/2000/svg">
<path d="M12.76 5.95455V9.22727L18.76 4.86364L12.76 0.5V3.77273C6.13001 3.77273 0.76001 7.67818 0.76001 12.5C0.76001 14.2127 1.45001 15.8055 2.62001 17.1473L4.81001 15.5545C4.13501 14.6491 3.76001 13.6018 3.76001 12.5C3.76001 8.88909 7.79501 5.95455 12.76 5.95455ZM22.9 7.85273L20.71 9.44545C21.37 10.3618 21.76 11.3982 21.76 12.5C21.76 16.1109 17.725 19.0455 12.76 19.0455V15.7727L6.76001 20.1364L12.76 24.5V21.2273C19.39 21.2273 24.76 17.3218 24.76 12.5C24.76 10.7873 24.07 9.19455 22.9 7.85273Z" fill="#999999"/>
</svg>
