<svg width="24" height="25" viewBox="0 0 24 25" fill="none" xmlns="http://www.w3.org/2000/svg">
<path fill-rule="evenodd" clip-rule="evenodd" d="M3.32316 0.500112L3.23025 0.500057C2.8085 0.499655 2.44494 0.499308 2.12286 0.576635C1.11031 0.819716 0.319716 1.61031 0.076635 2.62286C-0.000692417 2.94494 -0.000345351 3.3085 5.71067e-05 3.73025L0.000112456 3.82316V8.25389L5.71067e-05 8.34681C-0.000345351 8.76856 -0.000692417 9.13214 0.076635 9.4542C0.319716 10.4668 1.11031 11.2573 2.12286 11.5004C2.44494 11.5778 2.8085 11.5774 3.23025 11.577L3.32316 11.5769H7.75389L7.84681 11.577C8.26856 11.5774 8.63214 11.5778 8.9542 11.5004C9.96675 11.2573 10.7573 10.4668 11.0004 9.4542C11.0778 9.13214 11.0774 8.76856 11.077 8.34681L11.0769 8.25389V3.82316L11.077 3.73025C11.0774 3.3085 11.0778 2.94494 11.0004 2.62286C10.7573 1.61031 9.96675 0.819716 8.9542 0.576635C8.63214 0.499308 8.26856 0.499655 7.84681 0.500057L7.75389 0.500112H3.32316ZM2.55384 2.37176C2.6333 2.35268 2.75496 2.34625 3.32316 2.34625H7.75389C8.32212 2.34625 8.44378 2.35268 8.52322 2.37176C8.86075 2.45279 9.12426 2.71631 9.20531 3.05384C9.22438 3.1333 9.23081 3.25496 9.23081 3.82316V8.25389C9.23081 8.82212 9.22438 8.94378 9.20531 9.02322C9.12426 9.36075 8.86075 9.62426 8.52322 9.70531C8.44378 9.72438 8.32212 9.73081 7.75389 9.73081H3.32316C2.75496 9.73081 2.6333 9.72438 2.55384 9.70531C2.21631 9.62426 1.95279 9.36075 1.87176 9.02322C1.85268 8.94378 1.84625 8.82212 1.84625 8.25389V3.82316C1.84625 3.25496 1.85268 3.1333 1.87176 3.05384C1.95279 2.71631 2.21631 2.45279 2.55384 2.37176ZM16.2461 0.500112L16.1532 0.500057C15.7315 0.499655 15.3679 0.499308 15.0458 0.576635C14.0333 0.819716 13.2427 1.61031 12.9996 2.62286C12.9223 2.94494 12.9226 3.3085 12.923 3.73025L12.9231 3.82316V8.25389L12.923 8.34681C12.9226 8.76856 12.9223 9.13214 12.9996 9.4542C13.2427 10.4668 14.0333 11.2573 15.0458 11.5004C15.3679 11.5778 15.7315 11.5774 16.1532 11.577L16.2461 11.5769H20.6769L20.7697 11.577C21.1916 11.5774 21.5551 11.5778 21.8772 11.5004C22.8896 11.2573 23.6803 10.4668 23.9235 9.4542C24.0007 9.13214 24.0005 8.76856 23.9999 8.34681V8.25389V3.82316V3.73025C24.0005 3.3085 24.0007 2.94494 23.9235 2.62286C23.6803 1.61031 22.8896 0.819716 21.8772 0.576635C21.5551 0.499308 21.1916 0.499655 20.7697 0.500057L20.6769 0.500112H16.2461ZM15.4768 2.37176C15.5563 2.35268 15.6779 2.34625 16.2461 2.34625H20.6769C21.2451 2.34625 21.3668 2.35268 21.4462 2.37176C21.7836 2.45279 22.0473 2.71631 22.1283 3.05384C22.1473 3.1333 22.1538 3.25496 22.1538 3.82316V8.25389C22.1538 8.82212 22.1473 8.94378 22.1283 9.02322C22.0473 9.36075 21.7836 9.62426 21.4462 9.70531C21.3668 9.72438 21.2451 9.73081 20.6769 9.73081H16.2461C15.6779 9.73081 15.5563 9.72438 15.4768 9.70531C15.1393 9.62426 14.8758 9.36075 14.7947 9.02322C14.7756 8.94378 14.7692 8.82212 14.7692 8.25389V3.82316C14.7692 3.25496 14.7756 3.1333 14.7947 3.05384C14.8758 2.71631 15.1393 2.45279 15.4768 2.37176ZM3.23025 13.423L3.32316 13.4231H7.75389L7.84681 13.423C8.26856 13.4226 8.63214 13.4223 8.9542 13.4996C9.96675 13.7427 10.7573 14.5333 11.0004 15.5458C11.0778 15.8679 11.0774 16.2315 11.077 16.6532L11.0769 16.7461V21.1769L11.077 21.2697C11.0774 21.6916 11.0778 22.0551 11.0004 22.3772C10.7573 23.3896 9.96675 24.1803 8.9542 24.4235C8.63214 24.5007 8.26856 24.5005 7.84681 24.4999H7.75389H3.32316H3.23025C2.8085 24.5005 2.44494 24.5007 2.12286 24.4235C1.11031 24.1803 0.319716 23.3896 0.076635 22.3772C-0.000692417 22.0551 -0.000345351 21.6916 5.71067e-05 21.2697L0.000112456 21.1769V16.7461L5.71067e-05 16.6532C-0.000345351 16.2315 -0.000692417 15.8679 0.076635 15.5458C0.319716 14.5333 1.11031 13.7427 2.12286 13.4996C2.44494 13.4223 2.8085 13.4226 3.23025 13.423ZM3.32316 15.2692C2.75496 15.2692 2.6333 15.2756 2.55384 15.2947C2.21631 15.3758 1.95279 15.6393 1.87176 15.9768C1.85268 16.0563 1.84625 16.1779 1.84625 16.7461V21.1769C1.84625 21.7451 1.85268 21.8668 1.87176 21.9462C1.95279 22.2836 2.21631 22.5473 2.55384 22.6283C2.6333 22.6473 2.75496 22.6538 3.32316 22.6538H7.75389C8.32212 22.6538 8.44378 22.6473 8.52322 22.6283C8.86075 22.5473 9.12426 22.2836 9.20531 21.9462C9.22438 21.8668 9.23081 21.7451 9.23081 21.1769V16.7461C9.23081 16.1779 9.22438 16.0563 9.20531 15.9768C9.12426 15.6393 8.86075 15.3758 8.52322 15.2947C8.44378 15.2756 8.32212 15.2692 7.75389 15.2692H3.32316ZM16.2461 13.4231L16.1532 13.423C15.7315 13.4226 15.3679 13.4223 15.0458 13.4996C14.0333 13.7427 13.2427 14.5333 12.9996 15.5458C12.9223 15.8679 12.9226 16.2315 12.923 16.6532L12.9231 16.7461V21.1769L12.923 21.2697C12.9226 21.6916 12.9223 22.0551 12.9996 22.3772C13.2427 23.3896 14.0333 24.1803 15.0458 24.4235C15.3679 24.5007 15.7315 24.5005 16.1532 24.4999H16.2461H20.6769H20.7697C21.1916 24.5005 21.5551 24.5007 21.8772 24.4235C22.8896 24.1803 23.6803 23.3896 23.9235 22.3772C24.0007 22.0551 24.0005 21.6916 23.9999 21.2697V21.1769V16.7461V16.6532C24.0005 16.2315 24.0007 15.8679 23.9235 15.5458C23.6803 14.5333 22.8896 13.7427 21.8772 13.4996C21.5551 13.4223 21.1916 13.4226 20.7697 13.423L20.6769 13.4231H16.2461ZM15.4768 15.2947C15.5563 15.2756 15.6779 15.2692 16.2461 15.2692H20.6769C21.2451 15.2692 21.3668 15.2756 21.4462 15.2947C21.7836 15.3758 22.0473 15.6393 22.1283 15.9768C22.1473 16.0563 22.1538 16.1779 22.1538 16.7461V21.1769C22.1538 21.7451 22.1473 21.8668 22.1283 21.9462C22.0473 22.2836 21.7836 22.5473 21.4462 22.6283C21.3668 22.6473 21.2451 22.6538 20.6769 22.6538H16.2461C15.6779 22.6538 15.5563 22.6473 15.4768 22.6283C15.1393 22.5473 14.8758 22.2836 14.7947 21.9462C14.7756 21.8668 14.7692 21.7451 14.7692 21.1769V16.7461C14.7692 16.1779 14.7756 16.0563 14.7947 15.9768C14.8758 15.6393 15.1393 15.3758 15.4768 15.2947Z" fill="#878787"/>
</svg>
